<svg width="1024" height="1024" viewBox="0 0 1024 1024" fill="none" xmlns="http://www.w3.org/2000/svg">
  <rect width="1024" height="1024" rx="240" fill="#FFFDF7" />
  <circle cx="512" cy="512" r="360" fill="#F5C400" />
  <path d="M512 292C433.2 292 376 350.8 376 427.2C376 479.2 403.6 524.4 441.2 557.6C403.6 587.6 376 628.4 376 681.2C376 757.6 434.4 815.2 512 815.2C589.6 815.2 648 757.6 648 681.2C648 628.4 620.4 587.6 582.8 557.6C620.4 524.4 648 479.2 648 427.2C648 350.8 590.8 292 512 292ZM512 348.4C557.2 348.4 588.8 381.2 588.8 428.4C588.8 482 552.8 520 512 546.8C471.2 520 435.2 482 435.2 428.4C435.2 381.2 466.8 348.4 512 348.4ZM512 605.2C551.6 632 585.6 665.2 585.6 707.6C585.6 745.6 555.2 770 512 770C468.8 770 438.4 745.6 438.4 707.6C438.4 665.2 472.4 632 512 605.2Z" fill="#111111" />
  <path d="M432 551H592" stroke="#111111" stroke-width="48" stroke-linecap="round" />
</svg>
