<svg width="1024" height="1024" viewBox="0 0 1024 1024" fill="none" xmlns="http://www.w3.org/2000/svg">
  <rect width="1024" height="1024" rx="232" fill="#FFFDF7" />
  <rect x="116" y="116" width="792" height="792" rx="224" fill="#F7F2E6" />
  <rect x="164" y="164" width="696" height="696" rx="200" fill="#F5C400" />
  <circle cx="512" cy="512" r="248" fill="#FFF6CC" fill-opacity="0.38" />
  <path d="M512 318C431.6 318 374 377.2 374 454.4C374 507.6 402.4 554 440.4 587.6C402.4 618.4 374 660.4 374 714C374 791.2 432.8 848 512 848C591.2 848 650 791.2 650 714C650 660.4 621.6 618.4 583.6 587.6C621.6 554 650 507.6 650 454.4C650 377.2 592.4 318 512 318ZM512 375C558.4 375 590.8 408.6 590.8 456C590.8 509.6 554.4 548.8 512 576.6C469.6 548.8 433.2 509.6 433.2 456C433.2 408.6 465.6 375 512 375ZM512 636.2C553.2 664.2 588.4 699 588.4 743C588.4 782.2 557 807.4 512 807.4C467 807.4 435.6 782.2 435.6 743C435.6 699 470.8 664.2 512 636.2Z" fill="#111111" />
  <path d="M429 581H595" stroke="#111111" stroke-width="50" stroke-linecap="round" />
</svg>
