<svg width="128" height="128" viewBox="0 0 128 128" fill="none" xmlns="http://www.w3.org/2000/svg">
  <circle cx="64" cy="64" r="64" fill="#F5C400" />
  <path d="M64 26C50 26 40 36.4 40 50.2C40 59.6 45 67.8 51.8 73.8C45 79.2 40 86.6 40 96.2C40 110 50.4 120 64 120C77.6 120 88 110 88 96.2C88 86.6 83 79.2 76.2 73.8C83 67.8 88 59.6 88 50.2C88 36.4 78 26 64 26ZM64 36.2C72 36.2 77.6 42 77.6 50.4C77.6 60 71.2 66.8 64 71.6C56.8 66.8 50.4 60 50.4 50.4C50.4 42 56 36.2 64 36.2ZM64 82.2C71 87 77 93 77 100.6C77 107.4 71.6 111.8 64 111.8C56.4 111.8 51 107.4 51 100.6C51 93 57 87 64 82.2Z" fill="#111111" />
  <path d="M50 73H78" stroke="#111111" stroke-width="7" stroke-linecap="round" />
</svg>
