<svg width="320" height="96" viewBox="0 0 320 96" fill="none" xmlns="http://www.w3.org/2000/svg">
  <circle cx="48" cy="48" r="48" fill="#F5C400" />
  <path d="M48 20C37.5 20 30 27.8 30 38.15C30 45.2 33.75 51.35 38.85 55.85C33.75 59.9 30 65.45 30 72.65C30 83 37.8 90.5 48 90.5C58.2 90.5 66 83 66 72.65C66 65.45 62.25 59.9 57.15 55.85C62.25 51.35 66 45.2 66 38.15C66 27.8 58.5 20 48 20ZM48 27.65C54 27.65 58.2 31.95 58.2 38.3C58.2 45.5 53.4 50.6 48 54.2C42.6 50.6 37.8 45.5 37.8 38.3C37.8 31.95 42 27.65 48 27.65ZM48 62.15C53.25 65.75 57.75 70.25 57.75 75.95C57.75 81.05 53.7 84.35 48 84.35C42.3 84.35 38.25 81.05 38.25 75.95C38.25 70.25 42.75 65.75 48 62.15Z" fill="#111111" />
  <path d="M37.5 55.25H58.5" stroke="#111111" stroke-width="5" stroke-linecap="round" />
  <path d="M108.775 72V24.48H140.359V32.352H118.055V44.256H138.247V52.128H118.055V64.128H140.359V72H108.775ZM169.794 72.864C159.042 72.864 150.306 64.896 150.306 54.432C150.306 43.968 159.042 35.904 169.794 35.904C178.146 35.904 184.098 40.032 186.978 45.888L179.01 49.728C177.378 46.272 173.73 43.968 169.794 43.968C164.13 43.968 159.666 48.432 159.666 54.432C159.666 60.432 164.13 64.8 169.794 64.8C173.73 64.8 177.378 62.592 179.01 59.136L186.978 63.072C184.098 68.832 178.146 72.864 169.794 72.864ZM209.917 72.864C199.069 72.864 190.333 64.896 190.333 54.432C190.333 43.968 199.069 35.904 209.917 35.904C220.669 35.904 229.405 43.968 229.405 54.432C229.405 64.896 220.669 72.864 209.917 72.864ZM209.917 64.8C215.389 64.8 220.045 60.336 220.045 54.432C220.045 48.528 215.389 43.968 209.917 43.968C204.349 43.968 199.693 48.528 199.693 54.432C199.693 60.336 204.349 64.8 209.917 64.8ZM249.055 72.864C241.183 72.864 234.847 68.832 232.255 62.736L239.455 58.608C241.087 62.352 244.447 65.04 249.151 65.04C253.087 65.04 255.007 63.408 255.007 61.2C255.007 58.416 252.319 57.552 246.847 56.016C241.423 54.528 234.991 51.936 234.991 44.832C234.991 37.824 241.087 33.888 247.999 33.888C254.623 33.888 260.095 36.96 263.215 42.528L256.111 46.368C254.527 43.008 251.695 41.616 247.999 41.616C244.975 41.616 243.055 43.152 243.055 45.312C243.055 47.856 245.407 48.816 250.303 50.304C255.967 51.984 263.071 54.144 263.071 61.632C263.071 68.592 257.551 72.864 249.055 72.864ZM279.525 72V58.416L265.221 36.768H275.877L284.133 50.304L292.485 36.768H303.045L288.741 58.512V72H279.525Z" fill="#111111" />
</svg>
